# xmcd CD database file
#
# Track frame offsets:
#	150
#	14087
#	34975
#	47087
#	61825
#	72805
#	93557
#	110795
#	122830
#	132987
#	145955
#	158530
#	169030
#
# Disc length: 2502 seconds
#
# Revision: 3
# Processed by: cddbd v1.5.1PL0 Copyright (c) Steve Scherf et al.
# Submitted via: CDex 1.51
#
DISCID=ba09c40d
DTITLE=John Hammond - Mileage
DYEAR=1980
DGENRE=Blues
TTITLE0=My Babe
TTITLE1=Standing Around Crying
TTITLE2=Riding in the Moonlight
TTITLE3=Big 45
TTITLE4=Seventh Son
TTITLE5=Red Hot kisses
TTITLE6=Help Me
TTITLE7=It Hurts Me
TTITLE8=32-20 blues
TTITLE9=You'll Miss Me
TTITLE10=Mr. Luck
TTITLE11=Hot Tamales
TTITLE12=Diddley daddy
EXTD=YEAR: 1980
EXTT0=
EXTT1=
EXTT2=
EXTT3=
EXTT4=
EXTT5=
EXTT6=
EXTT7=
EXTT8=
EXTT9=
EXTT10=
EXTT11=
EXTT12=
PLAYORDER=
